# xmcd
#
# Track frame offsets:
# 150
# 18174
# 31516
# 47149
# 59497
# 73055
# 84838
# 97242
# 111714
# 123411
# 139928
# 150967
# 167724
#
# Disc length: 2401 seconds
#
#
# Revision: 0
# Processed by: cddbd v1.5.2PL0 Copyright (c) Steve Scherf et al.
# Submitted via: FreeRIP 2.96 
#
DISCID=ab095f0d
DTITLE=Sérgio Reis - 50 Anos Cantando O Brasil - CD2
DYEAR=2009
DGENRE=Country
TTITLE0=Filho Adotivo
TTITLE1=Rei Do Gado - Sérgio Reis e Pirilampo and Saracura
TTITLE2=Escolta De Vagalumes - Sérgio Reis and Filhos
TTITLE3=Cavalo Enxuto
TTITLE4=Coração De Papel
TTITLE5=Cidades De Mato Grosso
TTITLE6=Cavalo Preto
TTITLE7=Estrada Da Saudade
TTITLE8=Procissão
TTITLE9=Um Lugar Junto A Você
TTITLE10=Amor Nada Mais (Here There And Everywhere)
TTITLE11=Chitãozinho E Xororó
TTITLE12=Fazenda De Santo Antônio
EXTD=Ano 2009 - M.P.A.
EXTT0=
EXTT1=
EXTT2=
EXTT3=
EXTT4=
EXTT5=
EXTT6=
EXTT7=
EXTT8=
EXTT9=
EXTT10=
EXTT11=
EXTT12=
PLAYORDER=
